<?xml version="1.0" encoding="UTF-8" standalone="no"?><!-- Generator: Gravit.io --><svg xmlns="http://www.w3.org/2000/svg" xmlns:xlink="http://www.w3.org/1999/xlink" style="isolation:isolate" viewBox="-4403.375 -4637.259 2946.875 1547.109" width="2946.875pt" height="1547.109pt"><defs><clipPath id="_clipPath_O1G7lNJYooVpvBAjxd1CZSLDEaewXXuw"><rect x="-4403.375" y="-4637.259" width="2946.875" height="1547.109"/></clipPath></defs><g clip-path="url(#_clipPath_O1G7lNJYooVpvBAjxd1CZSLDEaewXXuw)"><rect x="-4403.375" y="-4637.259" width="2946.875" height="1547.109" style="fill:rgb(63,61,86)" fill-opacity="0"/><rect x="-4403.375" y="-4637.259" width="2946.875" height="1547.109" transform="matrix(1,0,0,1,0,0)" fill="rgb(63,61,86)"/><clipPath id="_clipPath_TTGSMPbG0FW8R5DywAcUxp9WdP7UssqK"><rect x="-4403.375" y="-4637.259" width="2946.875" height="1547.109" transform="matrix(1,0,0,1,0,0)" fill="rgb(63,61,86)"/></clipPath><g clip-path="url(#_clipPath_TTGSMPbG0FW8R5DywAcUxp9WdP7UssqK)"><g><rect x="-4135.937" y="-4639.18" width="2946.875" height="1547.109" transform="matrix(1,0,0,1,0,0)" fill="rgb(63,61,86)"/><g><text transform="matrix(1,0,0,1,-3426.938,-3846)" style="font-family:'Palanquin Dark';font-weight:700;font-size:200px;font-style:normal;fill:#ffffff;stroke:none;">BennoDev</text><text transform="matrix(1,0,0,1,-3414.727,-3790.345)" style="font-family:'Open Sans';font-weight:700;font-size:50px;font-style:normal;fill:#ffffff;stroke:none;">Software Engineer</text></g><g><g><g style="opacity:0.8;"><g opacity="0.8"><linearGradient id="_lgradient_3" x1="5.776654230515987e-7" y1="0.5000011881477509" x2="1.000000310635734" y2="0.5000011881477509" gradientTransform="matrix(357.475,0,0,418.557,-1591.769,-4023.744)" gradientUnits="userSpaceOnUse"><stop offset="0%" stop-opacity="1" style="stop-color:rgb(255,255,255)"/><stop offset="100%" stop-opacity="0.3" style="stop-color:rgb(255,255,255)"/></linearGradient><path d=" M -1583.851 -3606.784 L -1448.081 -3765.729 L -1312.312 -3924.674 L -1235.668 -4014.401 C -1231.427 -4019.366 -1237.971 -4027.111 -1242.211 -4022.146 L -1377.981 -3863.201 L -1513.751 -3704.256 L -1590.395 -3614.529 C -1594.636 -3609.564 -1588.092 -3601.819 -1583.851 -3606.784 L -1583.851 -3606.784 Z " fill="url(#_lgradient_3)"/></g></g><path d=" M -2114.408 -3736.593 L -2121.758 -3729.292 L -2129.059 -3736.642 L -2133.96 -3731.775 L -2126.659 -3724.425 L -2134.009 -3717.123 L -2129.142 -3712.223 L -2121.791 -3719.524 L -2114.49 -3712.174 L -2109.59 -3717.041 L -2116.891 -3724.392 L -2109.541 -3731.693 L -2114.408 -3736.593 L -2114.408 -3736.593 Z " fill="rgb(230,230,230)"/><path d=" M -2055.497 -4163.694 L -2062.848 -4156.393 L -2070.149 -4163.743 L -2075.049 -4158.876 L -2067.748 -4151.526 L -2075.098 -4144.224 L -2070.231 -4139.324 L -2062.881 -4146.625 L -2055.579 -4139.275 L -2050.679 -4144.142 L -2057.98 -4151.493 L -2050.63 -4158.794 L -2055.497 -4163.694 L -2055.497 -4163.694 Z " fill="rgb(230,230,230)"/><path d=" M -1719.314 -4072.988 L -1729.432 -4075.208 L -1727.217 -4085.33 L -1733.962 -4086.808 L -1736.181 -4076.686 L -1746.299 -4078.902 L -1747.777 -4072.157 L -1737.66 -4069.937 L -1739.875 -4059.819 L -1733.13 -4058.341 L -1730.91 -4068.463 L -1720.793 -4066.243 L -1719.314 -4072.988 L -1719.314 -4072.988 Z " fill="rgb(230,230,230)"/><path d=" M -1515.067 -4388.725 L -1525.185 -4390.945 L -1522.97 -4401.066 L -1529.715 -4402.545 L -1531.934 -4392.423 L -1542.052 -4394.638 L -1543.53 -4387.893 L -1533.413 -4385.674 L -1535.628 -4375.556 L -1528.883 -4374.078 L -1526.663 -4384.2 L -1516.546 -4381.98 L -1515.067 -4388.725 L -1515.067 -4388.725 Z " fill="rgb(230,230,230)"/><g style="opacity:0.8;"><g opacity="0.8"><linearGradient id="_lgradient_4" x1="-0.0000014042856593121655" y1="0.5000000138956597" x2="0.9999986068872087" y2="0.5000000138956597" gradientTransform="matrix(357.475,0,0,418.557,-1814.135,-4904.975)" gradientUnits="userSpaceOnUse"><stop offset="100%" stop-opacity="1" style="stop-color:rgb(255,255,255)"/><stop offset="100%" stop-opacity="0.9919364091401494" style="stop-color:rgb(255,255,255)"/></linearGradient><path d=" M -1806.218 -4488.015 L -1670.448 -4646.96 L -1534.679 -4805.906 L -1458.034 -4895.633 C -1453.794 -4900.597 -1460.338 -4908.342 -1464.578 -4903.378 L -1600.348 -4744.433 L -1736.118 -4585.488 L -1812.762 -4495.761 C -1817.002 -4490.796 -1810.458 -4483.051 -1806.218 -4488.015 L -1806.218 -4488.015 Z " fill="url(#_lgradient_4)"/></g></g></g><g><circle vector-effect="non-scaling-stroke" cx="-2982.0616652346284" cy="-3414.631535016764" r="14.727647790826268" fill="rgb(108,99,255)"/><path d=" M -2854.419 -3200.994 L -2861.769 -3193.693 L -2869.07 -3201.043 L -2873.97 -3196.176 L -2866.669 -3188.825 L -2874.02 -3181.524 L -2869.152 -3176.624 L -2861.802 -3183.925 L -2854.501 -3176.574 L -2849.601 -3181.442 L -2856.902 -3188.792 L -2849.551 -3196.093 L -2854.419 -3200.994 L -2854.419 -3200.994 Z " fill="rgb(230,230,230)"/><path d=" M -2795.508 -3628.095 L -2802.858 -3620.793 L -2810.159 -3628.144 L -2815.06 -3623.277 L -2807.759 -3615.926 L -2815.109 -3608.625 L -2810.242 -3603.725 L -2802.891 -3611.026 L -2795.59 -3603.675 L -2790.69 -3608.543 L -2797.991 -3615.893 L -2790.64 -3623.194 L -2795.508 -3628.095 L -2795.508 -3628.095 Z " fill="rgb(230,230,230)"/><path d=" M -2610.363 -4438.577 C -2626.266 -4427.981 -2642.543 -4453.201 -2626.334 -4463.327 C -2610.431 -4473.922 -2594.154 -4448.702 -2610.363 -4438.577 Z " fill="rgb(230,230,230)"/><path d=" M -3531.629 -3342.505 L -3541.746 -3344.725 L -3539.531 -3354.847 L -3546.276 -3356.325 L -3548.496 -3346.203 L -3558.613 -3348.419 L -3560.092 -3341.674 L -3549.974 -3339.454 L -3552.189 -3329.336 L -3545.444 -3327.858 L -3543.225 -3337.98 L -3533.107 -3335.76 L -3531.629 -3342.505 L -3531.629 -3342.505 Z " fill="rgb(230,230,230)"/><path d=" M -3103.766 -4397.603 L -3113.884 -4399.823 L -3111.668 -4409.941 L -3118.413 -4411.419 L -3120.633 -4401.301 L -3130.755 -4403.517 L -3132.233 -4396.772 L -3122.111 -4394.552 L -3124.327 -4384.43 L -3117.582 -4382.956 L -3115.362 -4393.074 L -3105.244 -4390.858 L -3103.766 -4397.603 L -3103.766 -4397.603 Z " fill="rgb(230,230,230)"/><path d=" M -2255.078 -3853.126 L -2265.196 -3855.345 L -2262.98 -3865.467 L -2269.725 -3866.945 L -2271.945 -3856.824 L -2282.063 -3859.039 L -2283.541 -3852.294 L -2273.423 -3850.074 L -2275.639 -3839.957 L -2268.894 -3838.478 L -2266.674 -3848.6 L -2256.556 -3846.381 L -2255.078 -3853.126 L -2255.078 -3853.126 Z " fill="rgb(230,230,230)"/><g style="opacity:0.8;"><g opacity="0.8"><linearGradient id="_lgradient_5" x1="-9.004111998223152e-7" y1="0.4999987989875381" x2="0.999997883810023" y2="0.4999987989875381" gradientTransform="matrix(357.475,0,0,418.557,-2811.112,-3945.504)" gradientUnits="userSpaceOnUse"><stop offset="0%" stop-opacity="1" style="stop-color:rgb(255,255,255)"/><stop offset="100%" stop-opacity="0.3" style="stop-color:rgb(255,255,255)"/></linearGradient><path d=" M -2803.195 -3528.544 L -2667.425 -3687.489 L -2531.656 -3846.434 L -2455.011 -3936.161 C -2450.77 -3941.126 -2457.315 -3948.871 -2461.555 -3943.906 L -2597.325 -3784.961 L -2733.095 -3626.016 L -2809.739 -3536.289 C -2813.979 -3531.324 -2807.435 -3523.579 -2803.195 -3528.544 L -2803.195 -3528.544 Z " fill="url(#_lgradient_5)"/></g></g></g><g><circle vector-effect="non-scaling-stroke" cx="-4063.6866652346284" cy="-3543.6565243764458" r="14.727647790826268" fill="rgb(108,99,255)"/><path d=" M -3936.044 -3330.019 L -3943.394 -3322.718 L -3950.695 -3330.068 L -3955.595 -3325.201 L -3948.294 -3317.85 L -3955.645 -3310.549 L -3950.777 -3305.649 L -3943.427 -3312.95 L -3936.126 -3305.599 L -3931.226 -3310.467 L -3938.527 -3317.817 L -3931.176 -3325.118 L -3936.044 -3330.019 L -3936.044 -3330.019 Z " fill="rgb(230,230,230)"/><path d=" M -3877.133 -3757.12 L -3884.483 -3749.818 L -3891.784 -3757.169 L -3896.685 -3752.302 L -3889.384 -3744.951 L -3896.734 -3737.65 L -3891.867 -3732.75 L -3884.516 -3740.051 L -3877.215 -3732.7 L -3872.315 -3737.568 L -3879.616 -3744.918 L -3872.265 -3752.219 L -3877.133 -3757.12 L -3877.133 -3757.12 Z " fill="rgb(230,230,230)"/><path d=" M -3691.988 -4567.602 C -3707.891 -4557.006 -3724.168 -4582.226 -3707.959 -4592.352 C -3692.056 -4602.947 -3675.779 -4577.727 -3691.988 -4567.602 Z " fill="rgb(230,230,230)"/><path d=" M -4185.391 -4526.628 L -4195.509 -4528.848 L -4193.293 -4538.966 L -4200.038 -4540.444 L -4202.258 -4530.326 L -4212.38 -4532.542 L -4213.858 -4525.797 L -4203.736 -4523.577 L -4205.952 -4513.455 L -4199.207 -4511.981 L -4196.987 -4522.099 L -4186.869 -4519.883 L -4185.391 -4526.628 L -4185.391 -4526.628 Z " fill="rgb(230,230,230)"/><circle vector-effect="non-scaling-stroke" cx="-3226.414520636363" cy="-4205.247208458" r="14.727647790826268" fill="rgb(108,99,255)"/><path d=" M -3495.703 -4069.151 L -3505.821 -4071.37 L -3503.605 -4081.492 L -3510.35 -4082.97 L -3512.57 -4072.849 L -3522.688 -4075.064 L -3524.166 -4068.319 L -3514.048 -4066.099 L -3516.264 -4055.982 L -3509.519 -4054.503 L -3507.299 -4064.625 L -3497.181 -4062.406 L -3495.703 -4069.151 L -3495.703 -4069.151 Z " fill="rgb(230,230,230)"/><path d=" M -2945.901 -4164.253 L -2956.019 -4166.472 L -2953.804 -4176.59 L -2960.549 -4178.068 L -2962.768 -4167.951 L -2972.89 -4170.166 L -2974.368 -4163.421 L -2964.247 -4161.201 L -2966.462 -4151.08 L -2959.717 -4149.605 L -2957.497 -4159.723 L -2947.38 -4157.508 L -2945.901 -4164.253 L -2945.901 -4164.253 Z " fill="rgb(230,230,230)"/></g></g><path d=" M -1906.5 -3498 Q -1666.099 -3520.964 -1582.5 -3429 C -1538.787 -3380.913 -1501 -3337.5 -1509.75 -3262.5 Q -1521.848 -3158.805 -1714.5 -3096" fill="none" vector-effect="non-scaling-stroke" stroke-width="3" stroke="rgb(130,115,232)" stroke-linejoin="miter" stroke-linecap="square" stroke-miterlimit="3"/><clipPath id="_clipPath_ZJjAeExG6vYatTYuWF11C8E3w4IZ263s"><rect x="-2404.432" y="-4027.539" width="600.438" height="1006.916" transform="matrix(0.883,0.47,-0.47,0.883,-1902.57,575.455)" fill="rgb(255,255,255)"/></clipPath><g clip-path="url(#_clipPath_ZJjAeExG6vYatTYuWF11C8E3w4IZ263s)"><g><g><g><path d=" M -2020.594 -3776.178 L -1843.504 -3681.996 C -1827.213 -3673.333 -1821.022 -3653.073 -1829.685 -3636.782 L -1938.794 -3431.625 C -1947.458 -3415.334 -1967.716 -3409.145 -1984.006 -3417.809 L -2161.096 -3511.99 C -2177.387 -3520.654 -2183.58 -3540.911 -2174.917 -3557.201 L -2065.808 -3762.359 C -2057.144 -3778.65 -2036.885 -3784.842 -2020.594 -3776.178 Z " fill="rgb(195,194,194)"/><g><path d=" M -2196.042 -3458.917 L -2192.931 -3463.847 C -2191.242 -3466.528 -2187.692 -3467.33 -2185.011 -3465.637 L -2131.979 -3432.169 C -2129.299 -3430.48 -2128.497 -3426.93 -2130.187 -3424.247 L -2133.299 -3419.321 C -2134.99 -3416.638 -2138.54 -3415.836 -2141.221 -3417.529 L -2194.253 -3450.997 C -2196.932 -3452.689 -2197.734 -3456.238 -2196.042 -3458.917 Z " fill="rgb(219,213,255)"/><g><path d=" M -2201.355 -3458.288 C -2178.158 -3447.468 -2153.912 -3431.413 -2132.788 -3414.835 L -2199.037 -3320.662 C -2239.601 -3351.161 -2253.27 -3361.471 -2282.42 -3384.706 C -2280.67 -3392.094 -2275.581 -3397.403 -2273.752 -3399.76 C -2265.016 -3411.015 -2249.953 -3409.318 -2240.962 -3405.365 Q -2237.946 -3404.039 -2201.355 -3458.288 Z " fill="rgb(255,255,255)"/><path d=" M -2185.721 -3339.035 L -2198.76 -3320.503 C -2203.674 -3324.197 -2208.193 -3327.593 -2211.871 -3330.363 C -2203.941 -3340.902 -2195.212 -3343.745 -2185.721 -3339.035 Z " fill="rgb(160,194,226)"/><path d=" M -2222.452 -3338.153 C -2246.586 -3356.365 -2260.503 -3367.003 -2283.483 -3385.32 C -2281.736 -3392.707 -2277.501 -3397.126 -2274.628 -3400.696 C -2265.073 -3411.204 -2258.226 -3412.8 -2240.962 -3405.365 C -2226.961 -3386.638 -2220.775 -3364.188 -2222.452 -3338.153 Z " fill="rgb(162,193,228)"/><path d=" M -2283.483 -3385.32 C -2283.788 -3383.996 -2285.957 -3380.164 -2286.046 -3379.225 L -2202.2 -3314.714 L -2198.76 -3320.503 L -2283.483 -3385.32 Z " fill="rgb(0,0,0)"/><path d=" M -2198.144 -3460.193 L -2134.311 -3419.182 C -2132.055 -3417.734 -2131.401 -3414.726 -2132.849 -3412.471 L -2132.849 -3412.471 C -2134.298 -3410.212 -2137.306 -3409.558 -2139.563 -3411.011 L -2203.394 -3452.02 C -2205.649 -3453.468 -2206.303 -3456.476 -2204.856 -3458.731 L -2204.856 -3458.731 C -2203.406 -3460.99 -2200.398 -3461.644 -2198.144 -3460.193 Z " fill="rgb(0,0,0)"/></g><path d=" M -2188.176 -3475.824 L -2136.516 -3551.345 C -2131.783 -3558.265 -2122.325 -3560.038 -2115.404 -3555.307 L -2076.187 -3528.479 C -2069.268 -3523.745 -2067.495 -3514.287 -2072.228 -3507.368 L -2123.883 -3431.848 C -2128.617 -3424.928 -2138.079 -3423.154 -2144.996 -3427.886 L -2184.214 -3454.711 C -2191.134 -3459.445 -2192.908 -3468.907 -2188.176 -3475.824 Z " fill="rgb(255,255,255)"/></g><g><path d=" M -2096.417 -3398.427 L -2093.697 -3403.606 C -2092.226 -3406.407 -2088.756 -3407.485 -2085.955 -3406.014 L -2030.714 -3376.978 C -2027.914 -3375.507 -2026.834 -3372.04 -2028.305 -3369.239 L -2031.03 -3364.059 C -2032.5 -3361.258 -2035.968 -3360.179 -2038.767 -3361.652 L -2094.013 -3390.687 C -2096.811 -3392.161 -2097.891 -3395.628 -2096.417 -3398.427 Z " fill="rgb(219,213,255)"/><g><path d=" M -2030.398 -3359.162 C -2050.381 -3374.064 -2075.335 -3387.452 -2099.295 -3397.926 L -2149.502 -3297.663 C -2104.635 -3276.94 -2089.487 -3269.975 -2056.114 -3255.692 C -2050.584 -3260.6 -2048.378 -3267.415 -2047.2 -3270.07 C -2041.575 -3282.754 -2049.979 -3294.892 -2057.519 -3300.78 Q -2060.048 -3302.753 -2030.398 -3359.162 Z " fill="rgb(255,255,255)"/><path d=" M -2139.889 -3317.558 L -2149.768 -3297.827 C -2144.334 -3295.317 -2139.335 -3293.008 -2135.265 -3291.13 C -2129.883 -3302.792 -2131.469 -3311.59 -2139.889 -3317.558 Z " fill="rgb(160,194,226)"/><path d=" M -2123.701 -3285.65 C -2096.948 -3273.352 -2081.406 -3266.321 -2055.094 -3255.063 C -2049.566 -3259.968 -2047.73 -3265.641 -2045.992 -3269.751 C -2041.39 -3282.791 -2043.177 -3289.4 -2057.519 -3300.78 C -2080.038 -3304.15 -2102.146 -3299.096 -2123.701 -3285.65 Z " fill="rgb(162,193,228)"/><path d=" M -2055.094 -3255.063 C -2056.09 -3254.189 -2058.532 -3250.22 -2059.295 -3249.711 L -2152.4 -3292.213 L -2149.768 -3297.827 L -2055.094 -3255.063 Z " fill="rgb(0,0,0)"/><path d=" M -2030.246 -3362.795 L -2094.865 -3398.621 C -2097.149 -3399.889 -2100.031 -3399.062 -2101.298 -3396.778 L -2101.298 -3396.778 C -2102.56 -3394.496 -2101.737 -3391.616 -2099.453 -3390.349 L -2034.834 -3354.522 C -2032.55 -3353.255 -2029.668 -3354.082 -2028.403 -3356.362 L -2028.403 -3356.362 C -2027.135 -3358.646 -2027.962 -3361.528 -2030.246 -3362.795 Z " fill="rgb(0,0,0)"/></g><path d=" M -2089.654 -3416.011 L -2047.404 -3496.212 C -2043.387 -3503.837 -2033.935 -3506.765 -2026.314 -3502.749 L -1985.023 -3480.996 C -1977.402 -3476.981 -1974.474 -3467.529 -1978.489 -3459.908 L -2020.744 -3379.705 C -2024.757 -3372.082 -2034.209 -3369.154 -2041.833 -3373.172 L -2083.121 -3394.923 C -2090.742 -3398.938 -2093.672 -3408.387 -2089.654 -3416.011 Z " fill="rgb(255,255,255)"/></g><g><path d=" M -2094.363 -3831.925 L -2078.615 -3809.3 C -2075.693 -3805.101 -2076.727 -3799.322 -2080.926 -3796.4 L -2125.258 -3765.54 C -2129.455 -3762.621 -2135.234 -3763.656 -2138.156 -3767.855 L -2153.906 -3790.477 C -2156.828 -3794.676 -2155.789 -3800.456 -2151.594 -3803.377 L -2107.26 -3834.234 C -2103.064 -3837.158 -2097.283 -3836.119 -2094.363 -3831.925 Z " fill="rgb(219,213,255)"/><path d=" M -2124.885 -3911.997 L -2120.138 -3897.965 C -2118.894 -3894.29 -2120.868 -3890.294 -2124.544 -3889.05 L -2174.402 -3872.181 C -2178.077 -3870.937 -2182.073 -3872.912 -2183.315 -3876.59 L -2188.063 -3890.622 C -2189.309 -3894.299 -2187.332 -3898.293 -2183.657 -3899.537 L -2133.799 -3916.406 C -2130.123 -3917.65 -2126.129 -3915.672 -2124.885 -3911.997 Z " fill="rgb(219,213,255)"/><path d=" M -2074.849 -3806.759 L -2015.024 -3740.818 C -2010.29 -3735.598 -2010.683 -3727.514 -2015.903 -3722.78 L -2054.304 -3687.938 C -2059.523 -3683.204 -2067.607 -3683.597 -2072.342 -3688.817 L -2132.169 -3754.759 C -2136.904 -3759.979 -2136.51 -3768.063 -2131.291 -3772.798 L -2092.887 -3807.637 C -2087.667 -3812.372 -2079.586 -3811.98 -2074.849 -3806.759 Z " fill="rgb(255,255,255)"/><path d=" M -2113.343 -3890.096 L -2088.947 -3827.69 C -2086.069 -3820.33 -2089.706 -3812.019 -2097.068 -3809.142 L -2142.475 -3791.389 C -2149.835 -3788.515 -2158.147 -3792.153 -2161.022 -3799.51 L -2185.421 -3861.918 C -2188.299 -3869.277 -2184.659 -3877.587 -2177.3 -3880.465 L -2131.89 -3898.218 C -2124.531 -3901.096 -2116.219 -3897.458 -2113.343 -3890.096 Z " fill="rgb(255,255,255)"/><g><path d=" M -2126.743 -3914.524 Q -2132.503 -3933.771 -2142.307 -3965.655 C -2145.739 -3976.925 -2154.166 -3984.357 -2161.117 -3982.24 L -2203.996 -3969.189 C -2210.947 -3967.072 -2213.801 -3956.207 -2210.371 -3944.934 Q -2204.735 -3909.167 -2194.806 -3893.806 Q -2184.879 -3878.446 -2126.743 -3914.524 Q -2120.984 -3895.277 -2126.743 -3914.524 Z " fill="rgb(255,255,255)"/><path d=" M -2171.229 -3897.179 C -2163.415 -3889.57 -2138.475 -3902.243 -2126.743 -3914.524 C -2115.012 -3926.805 -2112.235 -3932.812 -2107.356 -3939.516 C -2102.401 -3946.208 -2109.868 -3962.119 -2122.015 -3954.702 Q -2131.098 -3944.718 -2134.482 -3940.245 Q -2136.142 -3941.015 -2149.749 -3944.049 C -2155.474 -3945.325 -2172.071 -3940.926 -2177.255 -3925.817 C -2182.705 -3909.936 -2179.044 -3904.786 -2171.229 -3897.179 Z " fill="rgb(178,167,240)"/></g></g><g><path d=" M -1895.924 -3522.097 L -1900.494 -3547.578 C -1901.361 -3552.434 -1898.13 -3557.082 -1893.272 -3557.953 L -1840.898 -3567.339 C -1836.043 -3568.212 -1831.394 -3564.975 -1830.525 -3560.122 L -1825.957 -3534.638 C -1825.087 -3529.784 -1828.324 -3525.135 -1833.177 -3524.266 L -1885.552 -3514.876 C -1890.405 -3514.007 -1895.055 -3517.243 -1895.924 -3522.097 Z " fill="rgb(219,213,255)"/><path d=" M -1904.563 -3435.658 L -1898.2 -3460.777 C -1897.045 -3465.333 -1892.408 -3468.094 -1887.852 -3466.939 L -1840.626 -3454.973 C -1836.07 -3453.819 -1833.308 -3449.185 -1834.463 -3444.629 L -1840.828 -3419.508 C -1841.982 -3414.955 -1846.618 -3412.194 -1851.171 -3413.347 L -1898.4 -3425.314 C -1902.956 -3426.469 -1905.718 -3431.102 -1904.563 -3435.658 Z " fill="rgb(219,213,255)"/><path d=" M -1904.235 -3550.873 L -1931.065 -3635.773 C -1933.187 -3642.494 -1929.455 -3649.675 -1922.735 -3651.797 L -1873.294 -3667.421 C -1866.574 -3669.544 -1859.396 -3665.813 -1857.27 -3659.091 L -1830.442 -3574.195 C -1828.319 -3567.475 -1832.051 -3560.294 -1838.772 -3558.171 L -1888.212 -3542.547 C -1894.932 -3540.425 -1902.111 -3544.156 -1904.235 -3550.873 Z " fill="rgb(255,255,255)"/><path d=" M -1902.449 -3460.527 L -1896.474 -3527.266 C -1895.77 -3535.136 -1888.808 -3540.953 -1880.938 -3540.248 L -1832.376 -3535.903 C -1824.507 -3535.199 -1818.69 -3528.237 -1819.394 -3520.367 L -1825.37 -3453.625 C -1826.072 -3445.754 -1833.034 -3439.937 -1840.906 -3440.643 L -1889.467 -3444.991 C -1897.336 -3445.696 -1903.155 -3452.655 -1902.449 -3460.527 Z " fill="rgb(255,255,255)"/><g><path d=" M -1903.919 -3437.946 Q -1908.753 -3418.448 -1916.538 -3386.01 C -1919.322 -3374.562 -1915.847 -3363.875 -1908.789 -3362.161 L -1865.235 -3351.577 C -1858.174 -3349.861 -1850.186 -3357.763 -1847.403 -3369.208 Q -1834.053 -3402.87 -1834.784 -3421.144 Q -1835.511 -3439.418 -1903.919 -3437.946 Q -1899.082 -3457.442 -1903.919 -3437.946 Z " fill="rgb(255,255,255)"/><path d=" M -1856.795 -3430.238 C -1859.652 -3440.765 -1887.07 -3440.725 -1903.916 -3437.944 C -1920.765 -3435.165 -1924.218 -3431.828 -1933.832 -3426.981 C -1940.274 -3423.062 -1942.302 -3406.959 -1928.434 -3405.766 Q -1914.985 -3408.803 -1910.344 -3411.863 Q -1909.307 -3410.359 -1899.139 -3400.824 C -1894.86 -3396.814 -1878.334 -3392.152 -1866.182 -3402.52 C -1853.411 -3413.417 -1853.942 -3419.712 -1856.795 -3430.238 Z " fill="rgb(255,255,255)"/></g></g><g><path d=" M -2013.776 -3752.383 L -1873.328 -3677.689 C -1865.616 -3673.588 -1862.681 -3663.993 -1866.784 -3656.279 L -1934.507 -3528.939 C -1938.608 -3521.227 -1948.206 -3518.294 -1955.917 -3522.395 L -2096.366 -3597.09 C -2104.08 -3601.192 -2107.01 -3610.788 -2102.909 -3618.499 L -2035.186 -3745.84 C -2031.083 -3753.554 -2021.491 -3756.486 -2013.776 -3752.383 Z " fill="rgb(255,254,254)"/><path d=" M -2087.947 -3616.521 L -1944.072 -3540.004 C -1933.313 -3534.283 -1930.875 -3522.006 -1938.632 -3512.608 C -1943.004 -3507.31 -1957.152 -3480.224 -1960.466 -3469.72 C -1964.137 -3458.1 -1975.849 -3453.311 -1986.608 -3459.033 L -2130.893 -3535.768 C -2141.652 -3541.49 -2144.589 -3554.152 -2137.449 -3564.025 C -2133.002 -3570.179 -2118.646 -3596.954 -2115.179 -3606.211 C -2110.909 -3617.621 -2098.706 -3622.243 -2087.947 -3616.521 Z " fill="rgb(255,255,255)"/><g><path d=" M -2053.034 -3701.773 L -1893.321 -3616.832 C -1890.255 -3615.202 -1888.838 -3611.867 -1890.158 -3609.386 L -1890.158 -3609.386 C -1891.478 -3606.904 -1895.037 -3606.212 -1898.102 -3607.842 L -2057.816 -3692.782 C -2060.881 -3694.413 -2062.296 -3697.75 -2060.977 -3700.232 L -2060.977 -3700.232 C -2059.657 -3702.713 -2056.1 -3703.403 -2053.034 -3701.773 Z " fill="rgb(219,213,255)"/><path d=" M -2071.203 -3667.61 L -1911.489 -3582.67 C -1908.424 -3581.04 -1907.008 -3577.702 -1908.328 -3575.22 L -1908.328 -3575.22 C -1909.648 -3572.739 -1913.205 -3572.05 -1916.27 -3573.68 L -2075.984 -3658.62 C -2079.049 -3660.25 -2080.467 -3663.585 -2079.147 -3666.066 L -2079.147 -3666.066 C -2077.827 -3668.548 -2074.268 -3669.24 -2071.203 -3667.61 Z " fill="rgb(219,213,255)"/><path d=" M -2019.285 -3695.951 L -1914.415 -3638.963 C -1912.645 -3638.003 -1911.991 -3635.789 -1912.951 -3634.019 L -1941.112 -3582.199 C -1942.072 -3580.429 -1944.286 -3579.774 -1946.055 -3580.737 L -2050.926 -3637.723 C -2052.691 -3638.684 -2053.346 -3640.899 -2052.388 -3642.665 L -2024.225 -3694.488 C -2023.266 -3696.255 -2021.052 -3696.91 -2019.285 -3695.951 Z " fill="rgb(130,115,232)"/><path d=" M -2019.291 -3692.594 L -1917.225 -3637.131 C -1916.066 -3636.503 -1915.635 -3635.048 -1916.267 -3633.89 L -1942.536 -3585.549 C -1943.164 -3584.389 -1944.62 -3583.959 -1945.778 -3584.59 L -2047.84 -3640.051 C -2049.003 -3640.681 -2049.43 -3642.135 -2048.802 -3643.294 L -2022.532 -3691.635 C -2021.904 -3692.795 -2020.449 -3693.225 -2019.291 -3692.594 Z " fill="rgb(235,235,235)"/><path d=" M -2023.082 -3674.101 C -2022.17 -3675.816 -2020.039 -3676.467 -2018.324 -3675.555 C -2016.61 -3674.644 -2015.959 -3672.512 -2016.87 -3670.798 C -2017.782 -3669.084 -2019.914 -3668.432 -2021.628 -3669.344 C -2023.342 -3670.255 -2023.994 -3672.387 -2023.082 -3674.101 Z " fill="rgb(219,26,26)"/><path d=" M -2028.863 -3663.231 C -2027.952 -3664.945 -2025.82 -3665.597 -2024.106 -3664.685 C -2022.391 -3663.773 -2021.74 -3661.642 -2022.652 -3659.927 C -2023.563 -3658.213 -2025.695 -3657.562 -2027.409 -3658.473 C -2029.123 -3659.385 -2029.775 -3661.517 -2028.863 -3663.231 Z " fill="rgb(177,219,26)"/><path d=" M -2034.644 -3652.361 C -2033.733 -3654.075 -2031.601 -3654.726 -2029.887 -3653.815 C -2028.173 -3652.903 -2027.521 -3650.771 -2028.433 -3649.057 C -2029.344 -3647.343 -2031.476 -3646.691 -2033.19 -3647.603 C -2034.904 -3648.515 -2035.556 -3650.646 -2034.644 -3652.361 Z " fill="rgb(26,219,103)"/><rect x="-2019.723" y="-3663.224" width="59.821" height="39.114" transform="matrix(0.883,0.47,-0.47,0.883,-1945.345,507.681)" fill="rgb(123,161,236)"/><path d=" M -1948.988 -3638.679 L -1926.159 -3626.538 C -1925.602 -3626.242 -1925.39 -3625.55 -1925.687 -3624.992 L -1926.264 -3623.907 C -1926.56 -3623.35 -1927.252 -3623.138 -1927.81 -3623.435 L -1950.638 -3635.576 C -1951.196 -3635.872 -1951.407 -3636.564 -1951.111 -3637.121 L -1950.534 -3638.207 C -1950.237 -3638.764 -1949.545 -3638.975 -1948.988 -3638.679 Z " fill="rgb(0,0,0)"/><path d=" M -1952.701 -3632.88 L -1929.875 -3620.74 C -1929.317 -3620.444 -1929.103 -3619.75 -1929.399 -3619.193 L -1929.977 -3618.108 C -1930.273 -3617.55 -1930.969 -3617.338 -1931.527 -3617.634 L -1954.353 -3629.773 C -1954.91 -3630.07 -1955.12 -3630.765 -1954.823 -3631.322 L -1954.246 -3632.407 C -1953.95 -3632.965 -1953.258 -3633.176 -1952.701 -3632.88 Z " fill="rgb(0,0,0)"/><path d=" M -1956.084 -3626.518 L -1933.258 -3614.378 C -1932.701 -3614.082 -1932.487 -3613.388 -1932.783 -3612.831 L -1933.362 -3611.743 C -1933.658 -3611.185 -1934.353 -3610.976 -1934.91 -3611.272 L -1957.736 -3623.411 C -1958.293 -3623.708 -1958.505 -3624.4 -1958.209 -3624.957 L -1957.63 -3626.045 C -1957.333 -3626.602 -1956.641 -3626.814 -1956.084 -3626.518 Z " fill="rgb(0,0,0)"/><path d=" M -1959.469 -3620.153 L -1936.643 -3608.013 C -1936.086 -3607.717 -1935.872 -3607.023 -1936.168 -3606.466 L -1936.745 -3605.381 C -1937.042 -3604.823 -1937.736 -3604.613 -1938.294 -3604.91 L -1961.12 -3617.049 C -1961.677 -3617.346 -1961.888 -3618.038 -1961.592 -3618.595 L -1961.015 -3619.68 C -1960.718 -3620.238 -1960.027 -3620.449 -1959.469 -3620.153 Z " fill="rgb(0,0,0)"/><path d=" M -1962.853 -3613.791 L -1940.027 -3601.651 C -1939.47 -3601.355 -1939.255 -3600.661 -1939.552 -3600.104 L -1940.13 -3599.016 C -1940.427 -3598.458 -1941.122 -3598.249 -1941.679 -3598.545 L -1964.505 -3610.684 C -1965.062 -3610.981 -1965.273 -3611.673 -1964.977 -3612.23 L -1964.398 -3613.318 C -1964.102 -3613.875 -1963.41 -3614.087 -1962.853 -3613.791 Z " fill="rgb(0,0,0)"/></g><path d=" M -2074.73 -3691.295 Q -2071.857 -3687.152 -2067.28 -3685.493 L -2026.402 -3753.42 Q -2063.647 -3711.668 -2074.73 -3691.295 Z " fill="rgb(219,213,255)"/><path d=" M -1866.604 -3670.436 Q -1863.651 -3670.059 -1857.834 -3660.678 Q -1857.393 -3659.307 -1911.546 -3572.65 L -1866.604 -3670.436 Z " fill="rgb(219,213,255)"/><path d=" M -2139.422 -3560.224 C -2141.929 -3556.394 -2142.5 -3552.589 -2140.27 -3545.985 L -2091.777 -3514.965 C -2119.929 -3539.836 -2123.373 -3548.268 -2139.422 -3560.224 Z " fill="rgb(162,193,228)"/><path d=" M -1964.041 -3462.97 C -1967.721 -3458.109 -1973.895 -3456.385 -1980.548 -3455.81 L -2017.236 -3475.322 L -1964.041 -3462.97 Z " fill="rgb(162,193,228)"/><path d=" M -2106.134 -3616.73 L -2089.601 -3601.461 L -2101.921 -3619.968 C -2103.109 -3618.711 -2104.483 -3617.534 -2106.134 -3616.73 Z " fill="rgb(189,188,188)"/><path d=" M -1933.648 -3530.476 C -1934.15 -3528.082 -1934.027 -3525.88 -1934.294 -3525.341 L -1949.838 -3527.132 L -1933.648 -3530.476 Z " fill="rgb(189,188,188)"/></g><g><g><path d=" M -1764.692 -3763.505 L -1744.058 -3751.128 C -1742.26 -3750.051 -1741.674 -3747.715 -1742.755 -3745.916 L -1771.091 -3698.67 C -1772.17 -3696.874 -1774.507 -3696.287 -1776.303 -3697.367 L -1796.938 -3709.741 C -1798.735 -3710.821 -1799.321 -3713.157 -1798.241 -3714.953 L -1769.904 -3762.202 C -1768.827 -3764 -1766.493 -3764.583 -1764.692 -3763.505 Z " fill="rgb(255,255,255)"/><path d=" M -1767.625 -3745.487 C -1766.125 -3747.982 -1762.883 -3748.794 -1760.386 -3747.297 C -1757.887 -3745.798 -1757.076 -3742.556 -1758.574 -3740.056 C -1760.071 -3737.56 -1763.316 -3736.75 -1765.813 -3738.247 C -1768.309 -3739.744 -1769.124 -3742.988 -1767.625 -3745.487 Z " fill="rgb(0,0,0)"/><path d=" M -1784.213 -3724.669 C -1781.714 -3728.83 -1776.309 -3730.185 -1772.146 -3727.689 C -1767.984 -3725.193 -1766.631 -3719.785 -1769.126 -3715.623 C -1771.622 -3711.46 -1777.031 -3710.107 -1781.193 -3712.603 C -1785.354 -3715.102 -1786.709 -3720.507 -1784.213 -3724.669 Z " fill="rgb(100,65,189)"/></g><g><path d=" M -2010.848 -3908.329 L -1989.398 -3895.464 C -1987.825 -3894.523 -1987.313 -3892.478 -1988.259 -3890.904 L -2017.083 -3842.842 C -2018.027 -3841.271 -2020.072 -3840.759 -2021.644 -3841.701 L -2043.093 -3854.568 C -2044.666 -3855.509 -2045.178 -3857.554 -2044.235 -3859.129 L -2015.41 -3907.188 C -2014.464 -3908.761 -2012.422 -3909.275 -2010.848 -3908.329 Z " fill="rgb(255,255,255)"/><path d=" M -2013.373 -3890.067 C -2011.873 -3892.562 -2008.631 -3893.374 -2006.135 -3891.877 C -2003.635 -3890.378 -2002.824 -3887.136 -2004.322 -3884.637 C -2005.819 -3882.14 -2009.065 -3881.33 -2011.561 -3882.827 C -2014.06 -3884.326 -2014.872 -3887.568 -2013.373 -3890.067 Z " fill="rgb(0,0,0)"/><path d=" M -2029.961 -3869.25 C -2027.462 -3873.411 -2022.057 -3874.765 -2017.894 -3872.269 C -2013.732 -3869.774 -2012.379 -3864.365 -2014.875 -3860.203 C -2017.371 -3856.04 -2022.779 -3854.687 -2026.94 -3857.186 C -2031.102 -3859.682 -2032.457 -3865.087 -2029.961 -3869.25 Z " fill="rgb(100,65,189)"/></g><path d=" M -1994.341 -3893.45 Q -1945.83 -3954.037 -1904.592 -3956.085 C -1861.78 -3958.212 -1829.806 -3950.136 -1801.922 -3930.674 C -1774.147 -3911.286 -1752.628 -3880.478 -1747.827 -3853.162 C -1742.438 -3822.534 -1745.881 -3794.636 -1759.151 -3769.423 C -1769.141 -3746.952 -1785.383 -3722.413 -1807.956 -3695.929 C -1820.576 -3679.552 -1823.922 -3665.498 -1866.07 -3670.54 C -1922.119 -3681.851 -1967.242 -3713.773 -1991.517 -3728.587 C -2012.306 -3742.894 -2026.088 -3752.045 -2031.99 -3782.238 C -2032.067 -3805.029 -2027.128 -3817.104 -2023.365 -3830.725 C -2016.098 -3854.776 -2007.285 -3876.072 -1994.341 -3893.45 Z " fill="rgb(255,255,255)"/><path d=" M -1805.88 -3932.67 C -1836.524 -3955.368 -1912.862 -3972.882 -1953.634 -3935.55 C -1984.218 -3910.354 -2014.22 -3875.967 -2029.02 -3820.254 C -2035.99 -3793.317 -2030.813 -3767.867 -2022.74 -3757.15 C -2020.466 -3795.593 -2005.052 -3841.606 -1942 -3901.473 C -1923.353 -3923.427 -1871.19 -3934.803 -1805.88 -3932.67 Z " fill="rgb(236,234,249)"/><path d=" M -1866.07 -3670.54 C -1928.117 -3693.24 -2003.261 -3736.376 -2024.191 -3761.907 C -2032.223 -3752.614 -1928.179 -3678.606 -1866.07 -3670.54 Z " fill="rgb(219,213,255)"/><path d=" M -1992.759 -3870.565 C -1966.262 -3920.387 -1896.778 -3935.323 -1837.689 -3903.898 C -1778.601 -3872.473 -1752.14 -3806.511 -1778.637 -3756.689 C -1805.134 -3706.867 -1874.618 -3691.931 -1933.707 -3723.356 C -1992.795 -3754.781 -2019.256 -3820.743 -1992.759 -3870.565 Z " fill="rgb(49,48,48)"/><path d=" M -1925.47 -3884.713 C -1891.179 -3882.351 -1846.488 -3906.351 -1839.177 -3904.582 C -1838.476 -3904.352 -1839.215 -3904.56 -1839.198 -3904.593 C -1839.153 -3904.678 -1841.258 -3905.722 -1845.469 -3907.736 C -1874.286 -3922.96 -1944.203 -3937.01 -1986.378 -3880.809 C -2015.455 -3838.021 -2004.492 -3790.217 -1971.72 -3752.8 Q -1989.896 -3812.271 -1986.656 -3829.599 C -1984.19 -3842.796 -1967.255 -3879.542 -1925.47 -3884.713 Z " fill="rgb(25,25,25)"/><path d=" M -1843.487 -3858.823 C -1836.139 -3868.969 -1805.685 -3852.585 -1791.436 -3828.627 C -1777.548 -3805.272 -1781.849 -3770.695 -1795.95 -3773.19 C -1804.861 -3774.765 -1793.055 -3796.293 -1806.662 -3819.823 C -1820.27 -3843.352 -1850.055 -3849.756 -1843.487 -3858.823 Z " fill="rgb(81,81,81)"/></g></g></g></g></g><g><circle vector-effect="non-scaling-stroke" cx="-3941.0546333333355" cy="-4263.503700000001" r="301.42963333333364" fill="rgb(230,230,230)"/><circle vector-effect="non-scaling-stroke" cx="-3970.7034609247116" cy="-4471.045402063106" r="34.59027608747283" fill="rgb(203,203,203)"/><circle vector-effect="non-scaling-stroke" cx="-3911.405805741958" cy="-4125.14255011184" r="34.59027608747283" fill="rgb(203,203,203)"/><circle vector-effect="non-scaling-stroke" cx="-3777.986149888163" cy="-4317.859861148393" r="24.707333557013953" fill="rgb(203,203,203)"/><circle vector-effect="non-scaling-stroke" cx="-4059.6498981605764" cy="-4238.796320904719" r="79.06349470540499" fill="rgb(203,203,203)"/></g></g></g></g></svg>